# xmcd
# 
# Track frame offsets:
#     150
#     17352
#     39077
#     54070
#     70252
#     86730
#     104037
#     120795
#     136520
#     153965
#     171140
#     189305
#     205240
#     223240
# 
# Disc length: 3199
# 
# Revision: 5
# Processed by: cddbd v1.5.2PL0 Copyright (c) Steve Scherf et al.
# Submitted via: BonkEnc v1.0.6
# 
DISCID=ab0c7d0e
DTITLE=Chitãozinho and Xororó - Palavras
DYEAR=1995
DGENRE=Country
TTITLE0=Chitãozinho and Xororó - Vez Em Quando Vem Me Ver
TTITLE1=Chitãozinho and Xororó - Um Homem Quando Ama
TTITLE2=Chitãozinho and Xororó - Loira Gelada
TTITLE3=Chitãozinho and Xororó - Página De Amigos
TTITLE4=Chitãozinho and Xororó - Doce Pecado
TTITLE5=Chitãozinho and Xororó - Só Quem Amou Demais
TTITLE6=Chitãozinho and Xororó - Feito Eu
TTITLE7=Chitãozinho and Xororó - Bailão De Peão
TTITLE8=Chitãozinho and Xororó - Bandido É O Coração
TTITLE9=Chitãozinho and Xororó - Cara A Cara, Frente A Frente
TTITLE10=Chitãozinho and Xororó - Chorei
TTITLE11=Chitãozinho and Xororó - Só Mais Uma Vez
TTITLE12=Chitãozinho and Xororó - Parece Sonho
TTITLE13=Chitãozinho and Xororó - Ciumento Demais
EXTD=YEAR: 1995
EXTT0=
EXTT1=
EXTT2=
EXTT3=
EXTT4=
EXTT5=
EXTT6=
EXTT7=
EXTT8=
EXTT9=
EXTT10=
EXTT11=
EXTT12=
EXTT13=
PLAYORDER=
